<svg width="20" height="20" viewBox="0 0 20 20" fill="none" xmlns="http://www.w3.org/2000/svg">
<path d="M19.0385 14.2346H15.4885C16.3923 13.0615 16.9346 11.5962 16.9346 10C16.9346 8.40385 16.3923 6.93462 15.4885 5.76154H19.0385C19.6385 7.05 19.9769 8.48462 19.9769 10C19.9769 11.5154 19.6385 12.95 19.0385 14.2346ZM10.0077 14.2346C7.67307 14.2346 5.78461 12.3385 5.78461 9.99615C5.78461 7.65769 7.67691 5.75769 10.0077 5.75769C12.3423 5.75769 14.2308 7.65385 14.2308 9.99615C14.2308 12.3385 12.3423 14.2346 10.0077 14.2346ZM3.08076 10C3.08076 13.8385 6.18076 16.95 10.0077 16.95C11.0346 16.95 12.0038 16.7192 12.8808 16.3192V19.5769C11.9692 19.85 11.0077 20 10.0077 20C4.50384 20 0.0384521 15.5231 0.0384521 10C0.0384521 4.47692 4.50384 0 10.0077 0C11.0077 0 11.9692 0.15 12.8808 0.423077V3.68077C12.0038 3.27692 11.0346 3.05 10.0077 3.05C6.18076 3.05 3.08076 6.16154 3.08076 10Z" fill="#181817"/>
</svg>
