<svg width="20" height="20" viewBox="0 0 20 20" fill="none" xmlns="http://www.w3.org/2000/svg">
<path d="M10 0.15625C4.57194 0.15625 0.15625 4.57194 0.15625 10C0.15625 15.4281 4.57194 19.8438 10 19.8438C15.4281 19.8438 19.8438 15.4281 19.8438 10C19.8438 4.57194 15.4281 0.15625 10 0.15625ZM10 1.09375C14.9105 1.09375 18.9062 5.08952 18.9062 10C18.9062 14.9105 14.9105 18.9062 10 18.9062C5.08952 18.9062 1.09375 14.9105 1.09375 10C1.09375 5.08952 5.08952 1.09375 10 1.09375ZM10 3.25684C9.83236 3.25684 9.67936 3.34473 9.59473 3.48958L5.93587 9.764C5.85124 9.90885 5.85124 10.0911 5.93587 10.236L9.59473 16.5088C9.67936 16.6536 9.83236 16.7415 10 16.7415C10.1676 16.7415 10.3206 16.6536 10.4053 16.5088L14.0641 10.236C14.1488 10.0911 14.1488 9.90885 14.0641 9.764L10.4053 3.48958C10.3206 3.34473 10.1676 3.25684 10 3.25684ZM10 4.65658L12.9964 9.79329L10 11.5055L7.00358 9.79329L10 4.65658ZM7.58626 11.2061L9.76725 12.4528C9.83887 12.4935 9.91862 12.5163 10 12.5163C10.0814 12.5163 10.1611 12.4951 10.2327 12.4528L12.4137 11.2061L10 15.3434L7.58626 11.2061Z" fill="black"/>
</svg>
