<svg width="20" height="20" viewBox="0 0 20 20" fill="none" xmlns="http://www.w3.org/2000/svg">
<g clip-path="url(#clip0_8827_77503)">
<rect width="20" height="20" rx="10" fill="#0062FF"/>
<path fill-rule="evenodd" clip-rule="evenodd" d="M0 4.57844V3.56717L5.43103 7.30101C5.61731 4.94062 7.59175 3.08325 10 3.08325C12.4083 3.08325 14.3827 4.94065 14.569 7.30106L20 3.56723V4.5785L15.0185 8.00327C16.2624 8.82289 17.0833 10.2322 17.0833 11.8333C17.0833 14.3646 15.0313 16.4166 12.5 16.4166C11.7498 16.4166 11.0417 16.2364 10.4167 15.9168V20.9999H9.58333V15.9168C8.95828 16.2364 8.25019 16.4166 7.5 16.4166C4.96869 16.4166 2.91667 14.3646 2.91667 11.8333C2.91667 10.2322 3.73761 8.82285 4.98153 8.00325L0 4.57844ZM10 3.91659C8.01171 3.91659 6.38484 5.46398 6.25796 7.4202C6.65296 7.30926 7.06955 7.24992 7.5 7.24992C8.42233 7.24992 9.28102 7.52235 10 7.99114C10.719 7.52235 11.5777 7.24992 12.5 7.24992C12.9304 7.24992 13.347 7.30926 13.742 7.4202C13.6152 5.46398 11.9883 3.91659 10 3.91659ZM7.5 15.5833C8.15477 15.5833 8.77035 15.4154 9.30607 15.1205C8.44909 14.2877 7.91667 13.1226 7.91667 11.8333C7.91667 11.8056 7.91691 11.778 7.9174 11.7505C6.71335 11.1353 5.81728 10.0032 5.52174 8.6469C4.45805 9.3087 3.75 10.4883 3.75 11.8333C3.75 13.9043 5.42893 15.5833 7.5 15.5833ZM12.5 15.5833C11.8452 15.5833 11.2296 15.4154 10.6939 15.1205C11.5509 14.2877 12.0833 13.1226 12.0833 11.8333C12.0833 11.8056 12.0831 11.778 12.0826 11.7505C13.2867 11.1353 14.1827 10.0032 14.4783 8.64691C15.5419 9.3087 16.25 10.4883 16.25 11.8333C16.25 13.9043 14.5711 15.5833 12.5 15.5833ZM10 14.6284C10.71 13.9929 11.1764 13.0909 11.242 12.0796C10.847 12.1906 10.4304 12.2499 10 12.2499C9.56955 12.2499 9.15296 12.1906 8.75796 12.0796C8.82355 13.0909 9.29 13.9929 10 14.6284ZM13.7002 8.27942C13.5217 9.36516 12.8769 10.2938 11.9783 10.8529C11.7834 9.95846 11.3273 9.16152 10.6939 8.54603C11.2296 8.25107 11.8452 8.08325 12.5 8.08325C12.9197 8.08325 13.3234 8.15222 13.7002 8.27942ZM11.2002 11.2204C11.0585 10.3586 10.623 9.59574 10 9.03812C9.37698 9.59574 8.94149 10.3586 8.79983 11.2204C9.17664 11.3476 9.58027 11.4166 10 11.4166C10.4197 11.4166 10.8234 11.3476 11.2002 11.2204ZM8.02174 10.8529C8.21665 9.95846 8.67273 9.16152 9.30608 8.54603C8.77035 8.25107 8.15478 8.08325 7.5 8.08325C7.08027 8.08325 6.67664 8.15222 6.29983 8.27942C6.4783 9.36516 7.12311 10.2938 8.02174 10.8529Z" fill="white"/>
</g>
<defs>
<clipPath id="clip0_8827_77503">
<rect width="20" height="20" rx="10" fill="white"/>
</clipPath>
</defs>
</svg>
