<svg width="80" height="40" viewBox="0 0 80 40" fill="none" xmlns="http://www.w3.org/2000/svg">
  <path
    d="M3.69846 40C5.9351 40 7.39692 38.3527 7.39692 35.8843C7.39692 33.4003 5.9351 31.7529 3.69846 31.7529C1.46182 31.7529 0 33.4003 0 35.8843C0 38.3527 1.46182 40 3.69846 40ZM3.70362 38.6956C2.2418 38.6956 1.55996 37.4121 1.55996 35.8791C1.55996 34.3513 2.2418 33.0521 3.70362 33.0521C5.15511 33.0521 5.83695 34.3513 5.83695 35.8791C5.83695 37.4121 5.15511 38.6956 3.70362 38.6956Z"
    fill="black" />
  <path
    d="M12.3773 31.8569H10.6676V31.1397C10.6676 30.433 10.9568 30.0484 11.711 30.0484C12.0312 30.0484 12.2585 30.1212 12.4032 30.168L12.7647 28.9104C12.5478 28.8272 12.0984 28.6973 11.4734 28.6973C10.2182 28.6973 9.11793 29.4352 9.11793 30.9319V31.8569H7.89372V33.1041H9.11793V39.8389H10.6676V33.1041H12.3773V31.8569Z"
    fill="black" />
  <path
    d="M16.7814 39.8389H18.3259V34.9177C18.3259 33.842 19.0749 33.0937 19.953 33.0937C20.8105 33.0937 21.4045 33.6653 21.4045 34.5331V39.8389H22.9438V34.7514C22.9438 33.79 23.5275 33.0937 24.5348 33.0937C25.3509 33.0937 26.0224 33.551 26.0224 34.6319V39.8389H27.5669V34.4864C27.5669 32.6623 26.5544 31.7529 25.1185 31.7529C23.9769 31.7529 23.1194 32.3038 22.7372 33.156H22.6545C22.3084 32.283 21.5801 31.7529 20.5212 31.7529C19.4726 31.7529 18.6926 32.2778 18.362 33.156H18.2639V31.8569H16.7814V39.8389Z"
    fill="black" />
  <path
    d="M32.537 40C34.2674 40 35.4916 39.1426 35.8428 37.8434L34.381 37.5784C34.1021 38.3319 33.4306 38.7164 32.5524 38.7164C31.2301 38.7164 30.3416 37.8538 30.3003 36.3156H35.941V35.7647C35.941 32.8806 34.2261 31.7529 32.4285 31.7529C30.2177 31.7529 28.761 33.447 28.761 35.8999C28.761 38.3786 30.197 40 32.537 40ZM30.3055 35.1515C30.3675 34.0187 31.1836 33.0365 32.4388 33.0365C33.6372 33.0365 34.4223 33.9303 34.4275 35.1515H30.3055Z"
    fill="black" />
  <path
    d="M37.1351 39.8389H38.6796V34.9177C38.6796 33.842 39.4286 33.0937 40.3067 33.0937C41.1642 33.0937 41.7582 33.6653 41.7582 34.5331V39.8389H43.2975V34.7514C43.2975 33.79 43.8812 33.0937 44.8885 33.0937C45.7046 33.0937 46.3761 33.551 46.3761 34.6319V39.8389H47.9206V34.4864C47.9206 32.6623 46.9081 31.7529 45.4721 31.7529C44.3306 31.7529 43.4731 32.3038 43.0909 33.156H43.0082C42.6621 32.283 41.9338 31.7529 40.8749 31.7529C39.8263 31.7529 39.0463 32.2778 38.7157 33.156H38.6176V31.8569H37.1351V39.8389Z"
    fill="black" />
  <path
    d="M52.8132 40C55.0498 40 56.5116 38.3527 56.5116 35.8843C56.5116 33.4003 55.0498 31.7529 52.8132 31.7529C50.5765 31.7529 49.1147 33.4003 49.1147 35.8843C49.1147 38.3527 50.5765 40 52.8132 40ZM52.8183 38.6956C51.3565 38.6956 50.6747 37.4121 50.6747 35.8791C50.6747 34.3513 51.3565 33.0521 52.8183 33.0521C54.2698 33.0521 54.9517 34.3513 54.9517 35.8791C54.9517 37.4121 54.2698 38.6956 52.8183 38.6956Z"
    fill="black" />
  <path
    d="M57.7161 39.8389H59.2606V34.9645C59.2606 33.9199 60.0612 33.1664 61.1563 33.1664C61.4765 33.1664 61.8381 33.2236 61.9621 33.26V31.7737C61.8071 31.7529 61.5024 31.7373 61.3061 31.7373C60.3763 31.7373 59.5808 32.2674 59.2916 33.1249H59.2089V31.8569H57.7161V39.8389Z"
    fill="black" />
  <path
    d="M62.7792 39.8389H64.3236V31.8569H62.7792V39.8389ZM63.5591 30.6253C64.0912 30.6253 64.5354 30.2095 64.5354 29.7003C64.5354 29.191 64.0912 28.7701 63.5591 28.7701C63.0219 28.7701 62.5829 29.191 62.5829 29.7003C62.5829 30.2095 63.0219 30.6253 63.5591 30.6253Z"
    fill="black" />
  <path
    d="M69.3014 40C71.0319 40 72.2561 39.1426 72.6073 37.8434L71.1455 37.5784C70.8666 38.3319 70.1951 38.7164 69.3169 38.7164C67.9946 38.7164 67.1061 37.8538 67.0648 36.3156H72.7055V35.7647C72.7055 32.8806 70.9906 31.7529 69.193 31.7529C66.9822 31.7529 65.5255 33.447 65.5255 35.8999C65.5255 38.3786 66.9615 40 69.3014 40ZM67.07 35.1515C67.132 34.0187 67.9481 33.0365 69.2033 33.0365C70.4017 33.0365 71.1868 33.9303 71.192 35.1515H67.07Z"
    fill="black" />
  <path
    d="M79.845 33.8056C79.5248 32.5636 78.5589 31.7529 76.8439 31.7529C75.0515 31.7529 73.7808 32.7039 73.7808 34.1174C73.7808 35.2503 74.4627 36.0038 75.9503 36.3364L77.2933 36.6326C78.0578 36.8041 78.4142 37.147 78.4142 37.6459C78.4142 38.2643 77.7582 38.7476 76.7458 38.7476C75.8212 38.7476 75.2271 38.3475 75.0412 37.5628L73.5484 37.7914C73.8066 39.2049 74.974 40 76.7561 40C78.6725 40 80 38.9763 80 37.5316C80 36.4039 79.2872 35.7076 77.8305 35.3698L76.5702 35.0788C75.6972 34.8709 75.3201 34.5747 75.3253 34.0343C75.3201 33.4211 75.9813 32.9845 76.8594 32.9845C77.8202 32.9845 78.2644 33.5198 78.4452 34.055L79.845 33.8056Z"
    fill="black" />
  <path
    d="M1.15706 21.2854H10.1966C14.9488 21.2854 17.4799 18.791 17.4799 15.4028C17.4799 12.2537 15.2381 10.3517 12.831 10.2374V10.0295C15.0314 9.53063 16.6534 7.96125 16.6534 5.45647C16.6534 2.26573 14.298 0 9.62839 0H1.15706V21.2854ZM5.63033 17.6062V11.9523H9.38045C11.5293 11.9523 12.862 13.1995 12.862 14.9559C12.862 16.5565 11.7772 17.6062 9.27714 17.6062H5.63033ZM5.63033 8.90704V3.63765H9.0292C11.0127 3.63765 12.1388 4.66658 12.1388 6.20479C12.1388 7.88849 10.7751 8.90704 8.94655 8.90704H5.63033Z"
    fill="black" />
  <path
    d="M23.2582 21.2854L24.8284 16.4318H32.463L34.0333 21.2854H38.8268L31.5332 0H25.7686L18.4646 21.2854H23.2582ZM25.9648 12.9188L28.5682 4.86405H28.7335L31.3369 12.9188H25.9648Z"
    fill="black" />
  <path
    d="M58.2909 0H53.8383V13.3865H53.6524L44.5199 0H40.5941V21.2854H45.0674V7.88849H45.2224L54.4272 21.2854H58.2909V0Z"
    fill="black" />
  <path
    d="M61.2076 21.2854H65.6808V15.2365L67.8813 12.5343L73.6769 21.2854H79.0284L71.0839 9.53063L78.9354 0H73.5736L65.9598 9.38513H65.6808V0H61.2076V21.2854Z"
    fill="black" />
</svg>
  