<svg width="72" height="72" viewBox="0 0 72 72" fill="none" xmlns="http://www.w3.org/2000/svg">
<circle cx="36" cy="36" r="36" fill="url(#paint0_linear_63_2348)"/>
<path d="M36.8157 22.5968L39.8829 31.675L49.4641 31.7859C50.2891 31.7968 50.6297 32.8468 49.9688 33.339L42.2813 39.0609L45.1375 48.2078C45.3829 48.9953 44.4891 49.6437 43.8172 49.1671L36 43.6234L28.1829 49.1656C27.511 49.6421 26.6172 48.9937 26.8625 48.2062L29.7172 39.0593L22.0297 33.3375C21.3688 32.8453 21.7094 31.7953 22.5344 31.7859L32.1157 31.675L35.1829 22.5953C35.4469 21.814 36.5532 21.814 36.8157 22.5968Z" fill="white"/>
<defs>
<linearGradient id="paint0_linear_63_2348" x1="36" y1="0" x2="36" y2="72" gradientUnits="userSpaceOnUse">
<stop stop-color="#3E63DD"/>
<stop offset="1"/>
</linearGradient>
</defs>
</svg>
