<svg width="16" height="16" viewBox="0 0 16 16" fill="none" xmlns="http://www.w3.org/2000/svg">
<g clip-path="url(#clip0_17_4381)">
<path d="M7.99961 0.615631C3.92773 0.615631 0.615234 3.92813 0.615234 8.00001C0.615234 12.0719 3.92773 15.3844 7.99961 15.3844C12.0715 15.3844 15.384 12.0719 15.384 8.00001C15.384 3.92813 12.0715 0.615631 7.99961 0.615631ZM7.99961 1.8461C11.4059 1.8461 14.1535 4.59376 14.1535 8.00001C14.1535 11.4063 11.4059 14.1539 7.99961 14.1539C4.59336 14.1539 1.8457 11.4063 1.8457 8.00001C1.8457 4.59376 4.59336 1.8461 7.99961 1.8461ZM10.5762 4.3461C10.4855 4.36094 10.4082 4.4086 10.3457 4.50001L7.32617 8.98048L5.90352 7.57657C5.78086 7.39219 5.54492 7.37735 5.42305 7.50001L4.86523 8.05782C4.74258 8.24298 4.74258 8.49298 4.86523 8.61563L7.01914 10.7695C7.1418 10.832 7.31445 10.9617 7.49961 10.9617C7.62227 10.9617 7.81914 10.8969 7.9418 10.7117L11.634 5.28829C11.7566 5.10313 11.6871 4.93048 11.4418 4.80782L10.8262 4.36563C10.7637 4.33438 10.6676 4.33204 10.5762 4.3461Z" fill="#5BB98C"/>
</g>
<defs>
<clipPath id="clip0_17_4381">
<rect width="16" height="16" fill="white"/>
</clipPath>
</defs>
</svg>
