<svg width="14" height="12" viewBox="0 0 14 12" fill="none" xmlns="http://www.w3.org/2000/svg">
<path d="M2.72659 0.125C2.56252 0.128906 2.41018 0.207031 2.30862 0.335938L0.757836 1.89062C0.605493 2.04297 0.558618 2.26953 0.640649 2.47266C0.72268 2.66797 0.917993 2.80078 1.13284 2.80078H2.19924V9.19922C2.19924 10.668 3.39846 11.8672 4.86721 11.8672C6.33206 11.8672 7.53518 10.668 7.53518 9.19922V2.80078C7.53518 1.91016 8.24221 1.19922 9.13284 1.19922C10.0235 1.19922 10.7344 1.91016 10.7344 2.80078V9.19922H9.66799C9.45315 9.19922 9.25784 9.33203 9.17581 9.52734C9.08987 9.73047 9.13674 9.95703 9.28909 10.1094L10.8438 11.6641C10.9414 11.7969 11.1016 11.875 11.2656 11.875C11.4297 11.875 11.5899 11.7969 11.6914 11.6641L13.2422 10.1094C13.3946 9.95703 13.4414 9.73047 13.3594 9.52734C13.2774 9.33203 13.0821 9.19922 12.8672 9.19922H11.8008V2.80078C11.8008 1.33203 10.6016 0.132812 9.13284 0.132812C7.66799 0.132812 6.46487 1.33203 6.46487 2.80078V9.19922C6.46487 10.0898 5.75784 10.8008 4.86721 10.8008C3.97659 10.8008 3.26565 10.0898 3.26565 9.19922V2.80078H4.33205C4.5469 2.80078 4.74221 2.66797 4.82424 2.47266C4.91018 2.26953 4.8633 2.04297 4.71096 1.89062L3.15627 0.335938C3.0508 0.199219 2.89455 0.125 2.72659 0.125Z" fill="white"/>
</svg>
