<svg width="20" height="20" viewBox="0 0 20 20" fill="none" xmlns="http://www.w3.org/2000/svg">
<path d="M10 0.15625C4.57031 0.15625 0.15625 4.57031 0.15625 10C0.15625 15.4297 4.57031 19.8438 10 19.8438C15.4297 19.8438 19.8438 15.4297 19.8438 10C19.8438 4.57031 15.4297 0.15625 10 0.15625ZM10 1.09375C14.9121 1.09375 18.9062 5.08789 18.9062 10C18.9062 14.9121 14.9121 18.9062 10 18.9062C5.08789 18.9062 1.09375 14.9121 1.09375 10C1.09375 5.08789 5.08789 1.09375 10 1.09375ZM10 4.25781C6.83594 4.25781 4.25781 6.83594 4.25781 10C4.25781 10.3776 4.29362 10.752 4.36849 11.1198L3.10221 11.7546C2.87109 11.8685 2.77669 12.1484 2.89062 12.3828C2.97526 12.5456 3.13802 12.64 3.3138 12.64C3.38216 12.64 3.45378 12.6237 3.52214 12.5911L16.6667 6.01888C16.8978 5.90169 16.9922 5.62174 16.875 5.39062C16.7611 5.1595 16.4811 5.0651 16.2467 5.18229L5.24414 10.6803C5.21484 10.4557 5.19531 10.2279 5.19531 10C5.19531 7.35026 7.35026 5.19531 10 5.19531C10.8398 5.19531 11.6634 5.41341 12.3861 5.82682C12.6107 5.95703 12.8971 5.87891 13.0241 5.6543C13.1543 5.42969 13.0762 5.14323 12.8516 5.01628C11.9889 4.52148 11.0026 4.25781 10 4.25781ZM16.6146 7.22656C16.5527 7.22982 16.4909 7.24609 16.4355 7.27539L3.25521 13.8639C3.02409 13.9811 2.92969 14.2611 3.04688 14.4922C3.12825 14.6549 3.29427 14.7526 3.4668 14.7526C3.53841 14.7526 3.61003 14.7363 3.67513 14.7005L14.7331 9.17318C14.7786 9.44661 14.8047 9.72005 14.8047 10C14.8047 12.6497 12.653 14.8047 10 14.8047C9.10807 14.8047 8.24219 14.5605 7.48698 14.0951C7.26562 13.9583 6.97591 14.0267 6.83919 14.248C6.70573 14.4661 6.77409 14.7559 6.99219 14.8926C7.89713 15.4492 8.93555 15.7422 10 15.7422C13.1673 15.7422 15.7422 13.1641 15.7422 10C15.7422 9.57357 15.6966 9.15039 15.6055 8.74023L16.8555 8.11523C17.0866 7.99805 17.181 7.7181 17.0671 7.48698C16.9759 7.3112 16.7969 7.21354 16.6146 7.22656Z" fill="black"/>
</svg>
